<?xml version="1.0" standalone="no"?>
<!DOCTYPE svg PUBLIC "-//W3C//DTD SVG 20010904//EN"
 "http://www.w3.org/TR/2001/REC-SVG-20010904/DTD/svg10.dtd">
<svg version="1.0" xmlns="http://www.w3.org/2000/svg"
 width="300.000000pt" height="300.000000pt" viewBox="0 0 300.000000 300.000000"
 preserveAspectRatio="xMidYMid meet">
<metadata>
Created by potrace 1.10, written by Peter Selinger 2001-2011
</metadata>
<g transform="translate(0.000000,300.000000) scale(0.100000,-0.100000)"
fill="#000000" stroke="none">
<path d="M1177 2000 c-92 -61 -169 -110 -172 -110 -2 0 -5 26 -7 58 l-3 57
-85 0 -85 0 -3 -120 -3 -120 -114 -73 c-147 -94 -163 -107 -149 -122 8 -8 23
-4 55 18 194 130 738 482 743 482 3 0 181 -115 397 -256 279 -182 395 -252
402 -245 7 7 7 14 2 20 -11 10 -378 252 -513 337 l-83 52 53 34 c29 19 58 37
65 41 12 8 55 -19 497 -311 143 -94 263 -169 268 -166 4 3 8 10 8 15 0 9 -724
493 -755 505 -8 3 -48 -17 -89 -45 l-76 -51 -85 55 c-47 30 -89 55 -93 55 -4
0 -82 -50 -175 -110z m-211 -85 l-1 -55 -53 -35 c-30 -19 -55 -35 -56 -35 -1
0 -2 41 -2 90 l0 90 56 0 56 0 0 -55z"/>
<path d="M1253 1499 c-43 -13 -55 -37 -51 -112 3 -61 4 -62 41 -81 72 -35 148
0 151 70 l1 39 -47 3 c-43 3 -48 1 -48 -17 0 -12 5 -21 10 -21 6 0 10 -7 10
-16 0 -10 -7 -14 -22 -12 -19 2 -24 10 -26 42 -2 21 0 42 5 47 5 5 32 5 61 0
29 -4 55 -4 58 0 8 13 -42 59 -65 59 -11 0 -25 2 -33 4 -7 2 -28 0 -45 -5z"/>
<path d="M1472 1495 c-19 -8 -37 -26 -43 -42 -13 -35 -4 -111 17 -134 34 -38
142 -31 164 11 6 10 10 35 10 54 0 36 0 36 -45 36 -41 0 -45 -2 -45 -25 0 -14
5 -25 10 -25 6 0 10 -5 10 -11 0 -6 -10 -9 -22 -7 -19 2 -24 10 -26 42 -2 21
0 42 5 47 5 5 32 5 61 0 47 -7 52 -6 52 10 0 41 -92 68 -148 44z"/>
<path d="M1986 1502 c-2 -4 -7 -24 -11 -45 -7 -35 -6 -37 18 -37 20 0 28 8 41
40 9 22 16 43 16 45 0 8 -58 6 -64 -3z"/>
<path d="M2127 1500 c-41 -13 -57 -29 -57 -60 0 -34 24 -56 73 -64 62 -11 44
-28 -23 -20 -33 4 -60 3 -60 0 0 -21 24 -46 54 -56 75 -24 158 26 137 83 -10
25 -18 30 -78 42 -54 11 -37 24 22 18 37 -4 55 -2 55 5 0 15 -40 52 -56 52 -7
0 -18 2 -26 4 -7 2 -26 0 -41 -4z"/>
<path d="M795 1488 c-34 -95 -65 -188 -65 -192 0 -8 63 5 75 15 12 12 75 12
75 0 0 -9 70 -21 70 -11 0 3 -14 49 -32 103 l-33 97 -43 0 c-25 0 -44 -5 -47
-12z m59 -80 c5 -23 3 -28 -13 -28 -14 0 -19 5 -16 15 14 42 16 48 19 44 2 -2
6 -16 10 -31z"/>
<path d="M980 1424 c0 -41 4 -84 10 -94 13 -24 72 -43 110 -35 51 11 70 47 70
131 l0 74 -41 0 -42 0 5 -64 c6 -70 -1 -92 -26 -83 -13 5 -16 21 -16 77 l0 70
-35 0 -35 0 0 -76z"/>
<path d="M1660 1400 l0 -100 35 0 35 0 0 100 0 100 -35 0 -35 0 0 -100z"/>
<path d="M1770 1400 l0 -100 85 0 c84 0 85 0 85 25 0 23 -3 25 -50 25 -39 0
-50 3 -50 16 0 14 7 15 45 10 45 -7 45 -7 45 23 0 30 0 31 -45 24 -38 -5 -45
-3 -45 11 0 13 10 16 50 16 47 0 50 2 50 25 0 25 -1 25 -85 25 l-85 0 0 -100z"/>
<path d="M1180 975 c0 -42 3 -55 15 -55 8 0 15 9 15 20 0 15 7 20 26 20 21 0
25 -4 21 -20 -4 -14 0 -20 12 -20 14 0 17 10 17 55 0 38 -4 55 -13 55 -7 0
-13 -11 -13 -25 0 -20 -5 -25 -25 -25 -20 0 -25 5 -25 25 0 16 -6 25 -15 25
-12 0 -15 -13 -15 -55z"/>
<path d="M1372 1014 c-43 -30 -18 -94 37 -94 30 0 61 27 61 53 0 22 -35 57
-58 57 -10 0 -28 -7 -40 -16z m63 -24 c11 -18 -6 -50 -26 -50 -22 0 -34 22
-25 45 6 17 42 20 51 5z"/>
<path d="M1530 975 c0 -42 3 -55 15 -55 10 0 15 11 16 33 l1 32 11 -27 c6 -16
16 -28 22 -28 6 0 16 12 22 28 l11 27 1 -32 c1 -20 6 -33 14 -33 9 0 13 16 13
55 -1 44 -4 55 -18 55 -9 0 -21 -13 -27 -30 -5 -16 -13 -30 -16 -30 -3 0 -11
14 -16 30 -7 19 -18 30 -30 30 -16 0 -19 -8 -19 -55z"/>
<path d="M1730 975 l0 -55 45 0 c25 0 45 5 45 10 0 6 -13 10 -30 10 -16 0 -30
5 -30 10 0 6 11 10 25 10 14 0 25 5 25 10 0 6 -11 10 -25 10 -16 0 -25 6 -25
15 0 11 8 15 26 13 15 -2 29 3 31 10 3 8 -9 12 -41 12 l-46 0 0 -55z"/>
<path d="M738 765 c-2 -47 0 -55 14 -55 11 0 15 5 12 15 -4 9 0 15 9 15 8 0
17 -7 21 -15 3 -8 12 -15 21 -15 12 0 14 4 5 19 -7 13 -7 22 0 26 17 10 11 44
-9 55 -11 5 -31 10 -44 10 -23 0 -25 -4 -29 -55z m61 22 c13 -16 5 -27 -21
-27 -18 0 -25 20 -11 33 10 10 19 8 32 -6z"/>
<path d="M900 765 l0 -55 45 0 c25 0 45 5 45 10 0 6 -13 10 -29 10 -17 0 -33
5 -36 10 -4 6 7 10 24 10 37 0 41 17 6 22 -32 4 -28 23 4 23 13 0 26 6 28 13
3 8 -9 12 -41 12 l-46 0 0 -55z"/>
<path d="M1060 765 c0 -30 5 -55 10 -55 6 0 10 15 10 33 l1 32 15 -27 c8 -16
19 -28 23 -28 5 0 14 12 19 28 l10 27 1 -32 c1 -22 6 -33 16 -33 12 0 15 13
15 55 0 44 -3 55 -16 55 -9 0 -21 -13 -27 -30 -6 -16 -14 -30 -18 -30 -4 0
-12 14 -19 30 -21 50 -40 38 -40 -25z"/>
<path d="M1260 800 c-24 -24 -25 -38 -4 -68 18 -26 65 -30 88 -6 23 22 20 60
-6 78 -30 21 -54 20 -78 -4z m68 -38 c4 -28 -24 -40 -45 -19 -21 21 -9 49 19
45 15 -2 24 -11 26 -26z"/>
<path d="M1430 765 l0 -55 34 0 c19 0 42 7 50 16 38 37 4 94 -56 94 -27 0 -28
-2 -28 -55z m68 -8 c-2 -14 -11 -23 -25 -25 -19 -3 -23 1 -23 26 0 36 8 44 32
31 12 -6 18 -19 16 -32z"/>
<path d="M1600 766 l0 -56 45 0 c25 0 45 5 45 10 0 6 -16 10 -35 10 -19 0 -35
5 -35 10 0 6 14 10 30 10 36 0 40 17 5 22 -30 4 -30 23 0 23 40 0 29 20 -12
23 l-43 3 0 -55z"/>
<path d="M1750 765 l0 -55 40 0 c22 0 40 5 40 10 0 6 -11 10 -25 10 -23 0 -25
4 -25 45 0 33 -4 45 -15 45 -12 0 -15 -13 -15 -55z"/>
<path d="M1890 765 c0 -42 3 -55 15 -55 12 0 15 13 15 55 0 42 -3 55 -15 55
-12 0 -15 -13 -15 -55z"/>
<path d="M1990 765 c0 -41 4 -55 14 -55 9 0 16 12 18 33 l3 32 20 -32 c31 -52
50 -43 51 22 0 39 -4 55 -13 55 -8 0 -13 -13 -13 -37 l0 -38 -27 38 c-38 54
-53 49 -53 -18z"/>
<path d="M2180 800 c-49 -49 5 -111 74 -84 20 8 21 44 1 44 -8 0 -15 -7 -15
-16 0 -10 -7 -14 -22 -12 -17 2 -23 10 -23 28 0 20 5 25 27 25 34 1 47 13 28
25 -24 15 -48 12 -70 -10z"/>
</g>
</svg>
